<svg width="25" height="24" viewBox="0 0 25 24" fill="none" xmlns="http://www.w3.org/2000/svg">
<path d="M23.25 10.875V8.25C23.25 7.75272 23.0525 7.27581 22.7008 6.92417C22.3492 6.57254 21.8723 6.375 21.375 6.375H19.875V6C19.875 5.50272 19.6775 5.02581 19.3258 4.67417C18.9742 4.32254 18.4973 4.125 18 4.125H15.75C15.2527 4.125 14.7758 4.32254 14.4242 4.67417C14.0725 5.02581 13.875 5.50272 13.875 6V10.875H10.875V6C10.875 5.50272 10.6775 5.02581 10.3258 4.67417C9.97419 4.32254 9.49728 4.125 9 4.125H6.75C6.25272 4.125 5.77581 4.32254 5.42417 4.67417C5.07254 5.02581 4.875 5.50272 4.875 6V6.375H3.375C2.87772 6.375 2.40081 6.57254 2.04917 6.92417C1.69754 7.27581 1.5 7.75272 1.5 8.25V10.875C1.20163 10.875 0.915483 10.9935 0.704505 11.2045C0.493526 11.4155 0.375 11.7016 0.375 12C0.375 12.2984 0.493526 12.5845 0.704505 12.7955C0.915483 13.0065 1.20163 13.125 1.5 13.125V15.75C1.5 16.2473 1.69754 16.7242 2.04917 17.0758C2.40081 17.4275 2.87772 17.625 3.375 17.625H4.875V18C4.875 18.4973 5.07254 18.9742 5.42417 19.3258C5.77581 19.6775 6.25272 19.875 6.75 19.875H9C9.49728 19.875 9.97419 19.6775 10.3258 19.3258C10.6775 18.9742 10.875 18.4973 10.875 18V13.125H13.875V18C13.875 18.4973 14.0725 18.9742 14.4242 19.3258C14.7758 19.6775 15.2527 19.875 15.75 19.875H18C18.4973 19.875 18.9742 19.6775 19.3258 19.3258C19.6775 18.9742 19.875 18.4973 19.875 18V17.625H21.375C21.8723 17.625 22.3492 17.4275 22.7008 17.0758C23.0525 16.7242 23.25 16.2473 23.25 15.75V13.125C23.5484 13.125 23.8345 13.0065 24.0455 12.7955C24.2565 12.5845 24.375 12.2984 24.375 12C24.375 11.7016 24.2565 11.4155 24.0455 11.2045C23.8345 10.9935 23.5484 10.875 23.25 10.875ZM3.75 15.375V8.625H4.875V15.375H3.75ZM8.625 17.625H7.125V6.375H8.625V17.625ZM17.625 17.625H16.125V6.375H17.625V17.625ZM21 15.375H19.875V8.625H21V15.375Z" fill="#78797E"/>
</svg>
