<svg width="20" height="20" viewBox="0 0 20 20" fill="none" xmlns="http://www.w3.org/2000/svg">
<path d="M14.4132 10.6633L8.16325 16.9133C7.98713 17.0894 7.74826 17.1883 7.49918 17.1883C7.25011 17.1883 7.01124 17.0894 6.83512 16.9133C6.659 16.7372 6.56006 16.4983 6.56006 16.2492C6.56006 16.0001 6.659 15.7613 6.83512 15.5852L12.4218 10L6.83668 4.41328C6.74948 4.32607 6.6803 4.22254 6.63311 4.1086C6.58591 3.99466 6.56162 3.87254 6.56162 3.74922C6.56162 3.62589 6.58591 3.50377 6.63311 3.38983C6.6803 3.27589 6.74948 3.17236 6.83668 3.08515C6.92389 2.99795 7.02742 2.92877 7.14136 2.88158C7.2553 2.83438 7.37742 2.81009 7.50075 2.81009C7.62408 2.81009 7.7462 2.83438 7.86014 2.88158C7.97408 2.92877 8.0776 2.99795 8.16481 3.08515L14.4148 9.33515C14.5021 9.42235 14.5713 9.52593 14.6185 9.63994C14.6657 9.75395 14.6899 9.87615 14.6898 9.99954C14.6896 10.1229 14.6651 10.2451 14.6177 10.359C14.5702 10.4729 14.5007 10.5763 14.4132 10.6633Z" fill="#AAAAAA"/>
</svg>
