<svg width="25" height="24" viewBox="0 0 25 24" fill="none" xmlns="http://www.w3.org/2000/svg">
<path d="M11.3426 4.66875C11.1222 4.4479 10.8496 4.2862 10.5501 4.19862C10.2507 4.11104 9.93393 4.1004 9.62925 4.1677C9.32457 4.23499 9.04178 4.37803 8.80705 4.5836C8.57232 4.78916 8.39322 5.05061 8.28633 5.34375L3.36445 18.8822C3.2627 19.1621 3.22975 19.4624 3.26837 19.7578C3.30698 20.0531 3.41604 20.3349 3.58634 20.5793C3.75665 20.8236 3.9832 21.0235 4.24692 21.162C4.51063 21.3005 4.80378 21.3735 5.10164 21.375C5.32042 21.3746 5.53745 21.3359 5.74289 21.2606L19.2813 16.3387C19.5748 16.2323 19.8366 16.0535 20.0425 15.8189C20.2485 15.5844 20.392 15.3017 20.4597 14.9969C20.5273 14.6922 20.517 14.3753 20.4297 14.0757C20.3424 13.776 20.1809 13.5032 19.9601 13.2825L11.3426 4.66875ZM10.3929 17.1759L7.44914 14.2322L8.4007 11.6156L13.0095 16.2244L10.3929 17.1759ZM6.60351 16.5656L8.05945 18.0244L5.76726 18.8578L6.60351 16.5656ZM15.3438 15.375L9.25008 9.28125L10.1876 6.69562L17.9285 14.4375L15.3438 15.375ZM12.6251 3.75V1.5C12.6251 1.20163 12.7436 0.915483 12.9546 0.704505C13.1656 0.493526 13.4517 0.375 13.7501 0.375C14.0484 0.375 14.3346 0.493526 14.5456 0.704505C14.7565 0.915483 14.8751 1.20163 14.8751 1.5V3.75C14.8751 4.04837 14.7565 4.33452 14.5456 4.5455C14.3346 4.75647 14.0484 4.875 13.7501 4.875C13.4517 4.875 13.1656 4.75647 12.9546 4.5455C12.7436 4.33452 12.6251 4.04837 12.6251 3.75ZM23.5451 11.5791C23.7564 11.7904 23.8752 12.0771 23.8752 12.3759C23.8752 12.6748 23.7564 12.9615 23.5451 13.1728C23.3337 13.3842 23.0471 13.5029 22.7482 13.5029C22.4493 13.5029 22.1627 13.3842 21.9513 13.1728L20.4513 11.6728C20.24 11.4615 20.1212 11.1748 20.1212 10.8759C20.1212 10.5771 20.24 10.2904 20.4513 10.0791C20.6627 9.86772 20.9493 9.74899 21.2482 9.74899C21.5471 9.74899 21.8337 9.86772 22.0451 10.0791L23.5451 11.5791ZM23.4804 7.81687L21.2304 8.56687C20.9473 8.66123 20.6383 8.63928 20.3715 8.50583C20.1046 8.37239 19.9016 8.13839 19.8073 7.85531C19.7129 7.57224 19.7349 7.26327 19.8683 6.99638C20.0018 6.72949 20.2357 6.52655 20.5188 6.43219L22.7688 5.68219C23.0519 5.58783 23.3609 5.60979 23.6278 5.74323C23.8946 5.87667 24.0976 6.11067 24.192 6.39375C24.2863 6.67683 24.2644 6.98579 24.1309 7.25268C23.9975 7.51957 23.7635 7.72252 23.4804 7.81687ZM15.3063 6.18094C15.6091 4.45031 16.8804 3.375 18.6251 3.375C19.2298 3.375 19.4398 3.14156 19.5626 2.91375C19.6719 2.70377 19.7357 2.47315 19.7501 2.23688V2.25C19.7501 1.95163 19.8686 1.66548 20.0796 1.4545C20.2906 1.24353 20.5767 1.125 20.8751 1.125C21.1734 1.125 21.4596 1.24353 21.6706 1.4545C21.8815 1.66548 22.0001 1.95163 22.0001 2.25C22.0001 3.60656 21.101 5.625 18.6251 5.625C18.162 5.625 17.6679 5.73656 17.5226 6.56812C17.4771 6.82888 17.3412 7.06527 17.1387 7.23571C16.9362 7.40616 16.6801 7.49974 16.4154 7.5C16.35 7.49989 16.2848 7.49424 16.2204 7.48312C15.9265 7.43165 15.6651 7.26554 15.4937 7.02134C15.3223 6.77713 15.2549 6.47483 15.3063 6.18094Z" fill="#78797E"/>
</svg>
