<svg width="25" height="24" viewBox="0 0 25 24" fill="none" xmlns="http://www.w3.org/2000/svg">
<path d="M20.8962 9.45468L13.4009 2.37937L13.3859 2.36531C13.0415 2.05008 12.5915 1.87524 12.1245 1.87524C11.6576 1.87524 11.2076 2.05008 10.8631 2.36531L10.8472 2.37937L3.35375 9.45468C3.16372 9.6305 3.01202 9.84364 2.90813 10.0808C2.80424 10.3179 2.75041 10.5739 2.75 10.8328V19.5C2.75 19.9973 2.94754 20.4742 3.29917 20.8258C3.65081 21.1775 4.12772 21.375 4.625 21.375H9.125C9.62228 21.375 10.0992 21.1775 10.4508 20.8258C10.8025 20.4742 11 19.9973 11 19.5V15.375H13.25V19.5C13.25 19.9973 13.4475 20.4742 13.7992 20.8258C14.1508 21.1775 14.6277 21.375 15.125 21.375H19.625C20.1223 21.375 20.5992 21.1775 20.9508 20.8258C21.3025 20.4742 21.5 19.9973 21.5 19.5V10.8328C21.4996 10.5739 21.4458 10.3179 21.3419 10.0808C21.238 9.84364 21.0863 9.6305 20.8962 9.45468ZM19.25 19.125H15.5V15C15.5 14.7538 15.4515 14.51 15.3573 14.2825C15.263 14.055 15.1249 13.8483 14.9508 13.6742C14.7767 13.5001 14.57 13.362 14.3425 13.2677C14.115 13.1735 13.8712 13.125 13.625 13.125H10.625C10.1277 13.125 9.65081 13.3225 9.29917 13.6742C8.94754 14.0258 8.75 14.5027 8.75 15V19.125H5V10.995L12.125 4.26843L19.25 10.995V19.125Z" fill="#D7F710"/>
</svg>
