<svg width="25" height="24" viewBox="0 0 25 24" fill="none" xmlns="http://www.w3.org/2000/svg">
<path d="M22.8481 19.6874C21.5628 17.4315 19.5557 15.6737 17.15 14.6971C18.3463 13.7998 19.23 12.5489 19.6759 11.1215C20.1218 9.69412 20.1072 8.16262 19.6344 6.74395C19.1615 5.32527 18.2542 4.09135 17.041 3.21697C15.8279 2.34259 14.3704 1.87207 12.875 1.87207C11.3796 1.87207 9.92206 2.34259 8.70892 3.21697C7.49578 4.09135 6.5885 5.32527 6.11561 6.74395C5.64272 8.16262 5.62819 9.69412 6.07407 11.1215C6.51996 12.5489 7.40365 13.7998 8.59998 14.6971C6.19428 15.6737 4.18721 17.4315 2.90186 19.6874C2.82221 19.8154 2.76913 19.9582 2.74576 20.1072C2.7224 20.2562 2.72923 20.4084 2.76584 20.5547C2.80246 20.701 2.86812 20.8384 2.95892 20.9588C3.04972 21.0792 3.1638 21.1802 3.29438 21.2556C3.42496 21.3311 3.56938 21.3795 3.71905 21.398C3.86873 21.4165 4.02059 21.4047 4.16562 21.3634C4.31066 21.322 4.44589 21.252 4.5633 21.1573C4.6807 21.0626 4.77788 20.9453 4.84904 20.8124C6.54779 17.8761 9.54779 16.1249 12.875 16.1249C16.2022 16.1249 19.2022 17.8771 20.9009 20.8124C21.0552 21.0604 21.2998 21.2387 21.5831 21.3096C21.8664 21.3805 22.1662 21.3385 22.419 21.1924C22.6719 21.0463 22.8581 20.8076 22.9381 20.5267C23.0182 20.2459 22.9859 19.9449 22.8481 19.6874ZM7.99998 8.99988C7.99998 8.0357 8.28589 7.09317 8.82157 6.29148C9.35724 5.48979 10.1186 4.86495 11.0094 4.49597C11.9002 4.12699 12.8804 4.03045 13.826 4.21855C14.7717 4.40666 15.6403 4.87096 16.3221 5.55274C17.0039 6.23452 17.4682 7.10316 17.6563 8.04882C17.8444 8.99447 17.7479 9.97467 17.3789 10.8655C17.0099 11.7563 16.3851 12.5176 15.5834 13.0533C14.7817 13.589 13.8392 13.8749 12.875 13.8749C11.5825 13.8734 10.3434 13.3593 9.42948 12.4454C8.51556 11.5315 8.00147 10.2924 7.99998 8.99988Z" fill="#78797E"/>
</svg>
