<svg width="32" height="32" viewBox="0 0 32 32" fill="none" xmlns="http://www.w3.org/2000/svg">
<path d="M23.7501 14.4136L27.1513 11.2124L27.1838 11.1799C28.0164 10.3337 28.4809 9.19272 28.476 8.0056C28.4712 6.81849 27.9975 5.68137 27.158 4.84195C26.3186 4.00252 25.1815 3.5288 23.9944 3.52396C22.8073 3.51913 21.6663 3.98358 20.8201 4.81614C20.8088 4.82614 20.7988 4.83739 20.7876 4.84864L17.5863 8.24989L7.51259 4.58864C7.24445 4.49121 6.95409 4.47227 6.67556 4.53404C6.39704 4.59581 6.14191 4.73573 5.94009 4.93739L2.94009 7.93739C2.78242 8.09426 2.66161 8.28422 2.5864 8.49354C2.5112 8.70285 2.48348 8.92626 2.50525 9.14761C2.52703 9.36895 2.59775 9.58268 2.71231 9.77333C2.82686 9.96397 2.98238 10.1268 3.16759 10.2499L10.6463 15.2349L9.37509 16.4999H7.00009C6.60258 16.4999 6.22133 16.6577 5.94009 16.9386L2.94009 19.9386C2.76468 20.1139 2.63546 20.33 2.56399 20.5674C2.49253 20.8049 2.48105 21.0564 2.53059 21.2993C2.58013 21.5423 2.68913 21.7692 2.84786 21.9598C3.00658 22.1503 3.21006 22.2985 3.44009 22.3911L7.84384 24.1536L9.60134 28.5461L9.61259 28.5736C9.70809 28.8042 9.85959 29.0072 10.0534 29.1644C10.2471 29.3216 10.4771 29.428 10.7223 29.4739C10.9676 29.5199 11.2204 29.5039 11.4579 29.4274C11.6955 29.351 11.9102 29.2165 12.0826 29.0361L15.0588 26.0599C15.1984 25.9208 15.3092 25.7557 15.3849 25.5738C15.4606 25.3919 15.4998 25.1969 15.5001 24.9999V22.6249L16.7663 21.3586L21.7501 28.8311C21.8732 29.0158 22.0357 29.1709 22.226 29.2851C22.4162 29.3994 22.6295 29.47 22.8503 29.4919C23.0712 29.5138 23.2941 29.4864 23.5031 29.4117C23.7121 29.337 23.9019 29.2168 24.0588 29.0599L27.0588 26.0599C27.2607 25.858 27.4008 25.6026 27.4626 25.3238C27.5244 25.0451 27.5053 24.7544 27.4076 24.4861L23.7501 14.4136ZM23.2363 25.6449L18.2501 18.1661C18.127 17.9816 17.9644 17.8267 17.7742 17.7126C17.584 17.5985 17.3708 17.528 17.1501 17.5061C17.1002 17.5015 17.0502 17.4994 17.0001 17.4999C16.803 17.4999 16.6078 17.5388 16.4257 17.6143C16.2436 17.6898 16.0781 17.8004 15.9388 17.9399L12.9388 20.9399C12.6579 21.2211 12.5001 21.6024 12.5001 21.9999V24.3749L11.5476 25.3274L10.3926 22.4399C10.3172 22.2511 10.2041 22.0796 10.0604 21.9359C9.91661 21.7921 9.74513 21.6791 9.55634 21.6036L6.66884 20.4486L7.62509 19.4999H10.0001C10.3976 19.4999 10.7789 19.3421 11.0601 19.0611L14.0601 16.0611C14.2175 15.9043 14.3382 15.7144 14.4132 15.5052C14.4883 15.296 14.5159 15.0728 14.4942 14.8516C14.4724 14.6304 14.4018 14.4168 14.2873 14.2263C14.1729 14.0358 14.0176 13.873 13.8326 13.7499L6.35509 8.76489L7.38509 7.73364L17.4888 11.4074C17.7644 11.5076 18.0632 11.525 18.3485 11.4572C18.6337 11.3895 18.8929 11.2396 19.0938 11.0261L22.9551 6.92364C23.2369 6.64185 23.6191 6.48354 24.0176 6.48354C24.4161 6.48354 24.7983 6.64185 25.0801 6.92364C25.3619 7.20543 25.5202 7.58762 25.5202 7.98614C25.5202 8.38465 25.3619 8.76685 25.0801 9.04864L20.9776 12.9099C20.7639 13.1107 20.6138 13.3698 20.5458 13.6551C20.4779 13.9403 20.495 14.2393 20.5951 14.5149L24.2701 24.6174L23.2363 25.6449Z" fill="#191F2E"/>
</svg>
