<svg width="32" height="32" viewBox="0 0 32 32" fill="none" xmlns="http://www.w3.org/2000/svg">
<path d="M27.0613 23.0613L23.0613 27.0613C22.7795 27.343 22.3973 27.5014 21.9988 27.5014C21.6003 27.5014 21.2181 27.343 20.9363 27.0613C20.6545 26.7795 20.4962 26.3973 20.4962 25.9988C20.4962 25.6002 20.6545 25.218 20.9363 24.9363L22.375 23.5H6.00005C5.60223 23.5 5.22069 23.342 4.93939 23.0607C4.65809 22.7794 4.50005 22.3978 4.50005 22C4.50005 21.6022 4.65809 21.2207 4.93939 20.9393C5.22069 20.658 5.60223 20.5 6.00005 20.5H22.375L20.935 19.0613C20.6533 18.7795 20.4949 18.3973 20.4949 17.9988C20.4949 17.6002 20.6533 17.2181 20.935 16.9363C21.2168 16.6545 21.599 16.4962 21.9975 16.4962C22.3961 16.4962 22.7783 16.6545 23.06 16.9363L27.06 20.9363C27.2 21.0755 27.311 21.2411 27.3868 21.4233C27.4627 21.6056 27.5017 21.8011 27.5019 21.9985C27.502 22.1959 27.4631 22.3914 27.3875 22.5738C27.3119 22.7562 27.2011 22.9218 27.0613 23.0613ZM8.9363 15.0613C9.21809 15.343 9.60029 15.5014 9.9988 15.5014C10.3973 15.5014 10.7795 15.343 11.0613 15.0613C11.3431 14.7795 11.5014 14.3973 11.5014 13.9988C11.5014 13.6002 11.3431 13.218 11.0613 12.9363L9.62505 11.5H26C26.3979 11.5 26.7794 11.342 27.0607 11.0607C27.342 10.7794 27.5 10.3978 27.5 10C27.5 9.60218 27.342 9.22065 27.0607 8.93935C26.7794 8.65804 26.3979 8.50001 26 8.50001H9.62505L11.0613 7.06126C11.3431 6.77946 11.5014 6.39727 11.5014 5.99876C11.5014 5.60024 11.3431 5.21805 11.0613 4.93626C10.7795 4.65446 10.3973 4.49615 9.9988 4.49615C9.60029 4.49615 9.21809 4.65446 8.9363 4.93626L4.9363 8.93626C4.79646 9.07561 4.6855 9.2412 4.6098 9.42353C4.53409 9.60586 4.49512 9.80134 4.49512 9.99876C4.49512 10.1962 4.53409 10.3917 4.6098 10.574C4.6855 10.7563 4.79646 10.9219 4.9363 11.0613L8.9363 15.0613Z" fill="#191F2E"/>
</svg>
