<svg width="32" height="32" viewBox="0 0 32 32" fill="none" xmlns="http://www.w3.org/2000/svg">
<path d="M30.5 14.5V11C30.5 10.337 30.2366 9.70107 29.7678 9.23223C29.2989 8.76339 28.663 8.5 28 8.5H26V8C26 7.33696 25.7366 6.70107 25.2678 6.23223C24.7989 5.76339 24.163 5.5 23.5 5.5H20.5C19.837 5.5 19.2011 5.76339 18.7322 6.23223C18.2634 6.70107 18 7.33696 18 8V14.5H14V8C14 7.33696 13.7366 6.70107 13.2678 6.23223C12.7989 5.76339 12.163 5.5 11.5 5.5H8.5C7.83696 5.5 7.20107 5.76339 6.73223 6.23223C6.26339 6.70107 6 7.33696 6 8V8.5H4C3.33696 8.5 2.70107 8.76339 2.23223 9.23223C1.76339 9.70107 1.5 10.337 1.5 11V14.5C1.10218 14.5 0.720644 14.658 0.43934 14.9393C0.158035 15.2206 0 15.6022 0 16C0 16.3978 0.158035 16.7794 0.43934 17.0607C0.720644 17.342 1.10218 17.5 1.5 17.5V21C1.5 21.663 1.76339 22.2989 2.23223 22.7678C2.70107 23.2366 3.33696 23.5 4 23.5H6V24C6 24.663 6.26339 25.2989 6.73223 25.7678C7.20107 26.2366 7.83696 26.5 8.5 26.5H11.5C12.163 26.5 12.7989 26.2366 13.2678 25.7678C13.7366 25.2989 14 24.663 14 24V17.5H18V24C18 24.663 18.2634 25.2989 18.7322 25.7678C19.2011 26.2366 19.837 26.5 20.5 26.5H23.5C24.163 26.5 24.7989 26.2366 25.2678 25.7678C25.7366 25.2989 26 24.663 26 24V23.5H28C28.663 23.5 29.2989 23.2366 29.7678 22.7678C30.2366 22.2989 30.5 21.663 30.5 21V17.5C30.8978 17.5 31.2794 17.342 31.5607 17.0607C31.842 16.7794 32 16.3978 32 16C32 15.6022 31.842 15.2206 31.5607 14.9393C31.2794 14.658 30.8978 14.5 30.5 14.5ZM4.5 20.5V11.5H6V20.5H4.5ZM11 23.5H9V8.5H11V23.5ZM23 23.5H21V8.5H23V23.5ZM27.5 20.5H26V11.5H27.5V20.5Z" fill="#191F2E"/>
</svg>
