<svg width="32" height="32" viewBox="0 0 32 32" fill="none" xmlns="http://www.w3.org/2000/svg">
<path d="M23.0612 17.0613L13.0612 27.0613C12.7794 27.343 12.3972 27.5014 11.9987 27.5014C11.6002 27.5014 11.218 27.343 10.9362 27.0613C10.6544 26.7795 10.4961 26.3973 10.4961 25.9988C10.4961 25.6002 10.6544 25.218 10.9362 24.9363L19.8749 16L10.9387 7.06126C10.7992 6.92173 10.6885 6.75608 10.613 6.57378C10.5375 6.39147 10.4986 6.19608 10.4986 5.99876C10.4986 5.80143 10.5375 5.60604 10.613 5.42374C10.6885 5.24143 10.7992 5.07579 10.9387 4.93626C11.0782 4.79673 11.2439 4.68605 11.4262 4.61053C11.6085 4.53502 11.8039 4.49615 12.0012 4.49615C12.1985 4.49615 12.3939 4.53502 12.5762 4.61053C12.7585 4.68605 12.9242 4.79673 13.0637 4.93626L23.0637 14.9363C23.2034 15.0758 23.3141 15.2415 23.3896 15.4239C23.4651 15.6063 23.5039 15.8019 23.5036 15.9993C23.5034 16.1967 23.4642 16.3921 23.3883 16.5744C23.3123 16.7566 23.2012 16.9221 23.0612 17.0613Z" fill="#191F2E"/>
</svg>
