<svg width="32" height="32" viewBox="0 0 32 32" fill="none" xmlns="http://www.w3.org/2000/svg">
<path d="M31 16C31.0007 14.9562 30.7501 13.9276 30.2693 13.0012C29.7885 12.0748 29.0916 11.2778 28.2377 10.6776C27.3837 10.0774 26.3978 9.69164 25.3633 9.55302C24.3287 9.4144 23.276 9.52695 22.2942 9.88116C21.3124 10.2354 20.4303 10.8208 19.7225 11.588C19.0148 12.3551 18.5022 13.2815 18.2281 14.2886C17.954 15.2958 17.9265 16.3541 18.1479 17.3741C18.3693 18.3941 18.8331 19.3458 19.5 20.1488V27.5C19.4994 27.7636 19.5683 28.0227 19.6997 28.2512C19.8311 28.4797 20.0204 28.6696 20.2485 28.8016C20.4766 28.9337 20.7355 29.0033 20.9991 29.0035C21.2627 29.0036 21.5217 28.9343 21.75 28.8025L24.5 27.2275L27.2563 28.8025C27.4844 28.9327 27.7427 29.0008 28.0054 28.9999C28.2681 28.9989 28.5259 28.929 28.7531 28.7971C28.9802 28.6653 29.1688 28.476 29.2999 28.2484C29.431 28.0208 29.5 27.7627 29.5 27.5V20.1488C30.4705 18.9842 31.0014 17.5159 31 16ZM24.5 12.5C25.1922 12.5 25.8689 12.7053 26.4445 13.0899C27.0201 13.4744 27.4687 14.0211 27.7336 14.6606C27.9985 15.3001 28.0678 16.0039 27.9327 16.6828C27.7977 17.3617 27.4644 17.9854 26.9749 18.4749C26.4854 18.9644 25.8617 19.2977 25.1828 19.4327C24.5039 19.5678 23.8001 19.4985 23.1606 19.2336C22.5211 18.9687 21.9744 18.5201 21.5899 17.9445C21.2053 17.3689 21 16.6922 21 16C21 15.0717 21.3687 14.1815 22.0251 13.5251C22.6815 12.8687 23.5717 12.5 24.5 12.5ZM25.25 24.1975C25.0235 24.0682 24.7671 24.0001 24.5063 24.0001C24.2454 24.0001 23.989 24.0682 23.7625 24.1975L22.5 24.915V22.1838C23.8 22.6054 25.2 22.6054 26.5 22.1838V24.915L25.25 24.1975ZM17.5 24C17.5 24.3978 17.342 24.7794 17.0607 25.0607C16.7794 25.342 16.3978 25.5 16 25.5H5C4.33696 25.5 3.70107 25.2366 3.23223 24.7678C2.76339 24.2989 2.5 23.663 2.5 23V7C2.5 6.33696 2.76339 5.70107 3.23223 5.23223C3.70107 4.76339 4.33696 4.5 5 4.5H27C27.663 4.5 28.2989 4.76339 28.7678 5.23223C29.2366 5.70107 29.5 6.33696 29.5 7C29.5005 7.35424 29.3757 7.69723 29.1475 7.96824C28.9194 8.23924 28.6027 8.42076 28.2536 8.48064C27.9044 8.54053 27.5454 8.47492 27.24 8.29543C26.9346 8.11595 26.7026 7.83417 26.585 7.5H5.5V22.5H16C16.3978 22.5 16.7794 22.658 17.0607 22.9393C17.342 23.2206 17.5 23.6022 17.5 24ZM16 17.5C16 17.8978 15.842 18.2794 15.5607 18.5607C15.2794 18.842 14.8978 19 14.5 19H9.5C9.10218 19 8.72064 18.842 8.43934 18.5607C8.15804 18.2794 8 17.8978 8 17.5C8 17.1022 8.15804 16.7206 8.43934 16.4393C8.72064 16.158 9.10218 16 9.5 16H14.5C14.8978 16 15.2794 16.158 15.5607 16.4393C15.842 16.7206 16 17.1022 16 17.5ZM16 12.5C16 12.8978 15.842 13.2794 15.5607 13.5607C15.2794 13.842 14.8978 14 14.5 14H9.5C9.10218 14 8.72064 13.842 8.43934 13.5607C8.15804 13.2794 8 12.8978 8 12.5C8 12.1022 8.15804 11.7206 8.43934 11.4393C8.72064 11.158 9.10218 11 9.5 11H14.5C14.8978 11 15.2794 11.158 15.5607 11.4393C15.842 11.7206 16 12.1022 16 12.5Z" fill="#191F2E"/>
</svg>
