<svg width="32" height="32" viewBox="0 0 32 32" fill="none" xmlns="http://www.w3.org/2000/svg">
<path d="M21.5001 13.5002C21.5001 13.898 21.342 14.2796 21.0607 14.5609C20.7794 14.8422 20.3979 15.0002 20.0001 15.0002H12.0001C11.6022 15.0002 11.2207 14.8422 10.9394 14.5609C10.6581 14.2796 10.5001 13.898 10.5001 13.5002C10.5001 13.1024 10.6581 12.7209 10.9394 12.4396C11.2207 12.1583 11.6022 12.0002 12.0001 12.0002H20.0001C20.3979 12.0002 20.7794 12.1583 21.0607 12.4396C21.342 12.7209 21.5001 13.1024 21.5001 13.5002ZM20.0001 17.0002H12.0001C11.6022 17.0002 11.2207 17.1583 10.9394 17.4396C10.6581 17.7209 10.5001 18.1024 10.5001 18.5002C10.5001 18.898 10.6581 19.2796 10.9394 19.5609C11.2207 19.8422 11.6022 20.0002 12.0001 20.0002H20.0001C20.3979 20.0002 20.7794 19.8422 21.0607 19.5609C21.342 19.2796 21.5001 18.898 21.5001 18.5002C21.5001 18.1024 21.342 17.7209 21.0607 17.4396C20.7794 17.1583 20.3979 17.0002 20.0001 17.0002ZM29.5001 16.0002C29.5006 18.3127 28.907 20.5865 27.7764 22.6037C26.6458 24.6209 25.0159 26.3138 23.0431 27.5203C21.0703 28.7267 18.8207 29.4061 16.5099 29.4935C14.199 29.5808 11.9045 29.0731 9.84631 28.019L5.79257 29.3752C5.35127 29.5239 4.8772 29.5465 4.42379 29.4402C3.97038 29.334 3.55566 29.1032 3.22637 28.7739C2.89708 28.4446 2.66631 28.0299 2.56007 27.5765C2.45383 27.1231 2.47634 26.649 2.62507 26.2077L3.97632 22.154C3.04843 20.3364 2.54466 18.3322 2.5029 16.2919C2.46114 14.2516 2.88246 12.2284 3.7352 10.3745C4.58793 8.52047 5.84988 6.88392 7.42617 5.58787C9.00245 4.29181 10.8521 3.36998 12.8359 2.89168C14.8198 2.41337 16.8862 2.39105 18.8799 2.82637C20.8737 3.2617 22.7428 4.14336 24.3467 5.40505C25.9506 6.66675 27.2476 8.27564 28.1402 10.1108C29.0328 11.9459 29.4977 13.9595 29.5001 16.0002ZM26.5001 16.0002C26.4995 14.3896 26.1283 12.8008 25.4155 11.3566C24.7026 9.91239 23.667 8.65154 22.3889 7.67157C21.1107 6.69161 19.6243 6.0188 18.0446 5.7052C16.4648 5.39159 14.8341 5.4456 13.2786 5.86305C11.7231 6.28049 10.2844 7.05017 9.07391 8.11256C7.86343 9.17495 6.91356 10.5016 6.29779 11.9898C5.68202 13.478 5.41686 15.0879 5.52281 16.695C5.62876 18.3021 6.10299 19.8632 6.90882 21.2577C7.01532 21.4416 7.08154 21.646 7.10309 21.8574C7.12464 22.0688 7.10103 22.2824 7.03382 22.484L5.79257 26.2077L9.51631 24.9665C9.6695 24.9154 9.82986 24.8893 9.99132 24.889C10.2548 24.8894 10.5134 24.9593 10.7413 25.0915C12.3376 26.0151 14.149 26.5021 15.9932 26.5033C17.8375 26.5045 19.6495 26.0199 21.247 25.0983C22.8445 24.1767 24.171 22.8506 25.0932 21.2535C26.0154 19.6563 26.5006 17.8445 26.5001 16.0002Z" fill="#191F2E"/>
</svg>
