<svg width="32" height="32" viewBox="0 0 32 32" fill="none" xmlns="http://www.w3.org/2000/svg">
<path d="M14.2904 6.225C13.9965 5.93053 13.6331 5.71494 13.2338 5.59816C12.8345 5.48139 12.4122 5.46721 12.006 5.55693C11.5998 5.64665 11.2227 5.83738 10.9097 6.11146C10.5967 6.38555 10.358 6.73415 10.2154 7.125L3.65293 25.1763C3.51726 25.5495 3.47333 25.9499 3.52482 26.3437C3.57631 26.7375 3.72171 27.1132 3.94878 27.439C4.17585 27.7649 4.47793 28.0313 4.82955 28.216C5.18117 28.4006 5.57203 28.498 5.96918 28.5C6.26089 28.4994 6.55026 28.4478 6.82418 28.3475L24.8754 21.785C25.2667 21.643 25.6158 21.4046 25.8904 21.0919C26.165 20.7792 26.3563 20.4022 26.4465 19.9959C26.5368 19.5896 26.523 19.1671 26.4066 18.7676C26.2902 18.368 26.0748 18.0042 25.7804 17.71L14.2904 6.225ZM13.0242 22.9013L9.09918 18.9762L10.3679 15.4875L16.5129 21.6325L13.0242 22.9013ZM7.97168 22.0875L9.91293 24.0325L6.85668 25.1437L7.97168 22.0875ZM19.6254 20.5L11.5004 12.375L12.7504 8.9275L23.0717 19.25L19.6254 20.5ZM16.0004 5V2C16.0004 1.60218 16.1585 1.22064 16.4398 0.93934C16.7211 0.658035 17.1026 0.5 17.5004 0.5C17.8983 0.5 18.2798 0.658035 18.5611 0.93934C18.8424 1.22064 19.0004 1.60218 19.0004 2V5C19.0004 5.39782 18.8424 5.77936 18.5611 6.06066C18.2798 6.34196 17.8983 6.5 17.5004 6.5C17.1026 6.5 16.7211 6.34196 16.4398 6.06066C16.1585 5.77936 16.0004 5.39782 16.0004 5ZM30.5604 15.4388C30.8422 15.7205 31.0005 16.1027 31.0005 16.5012C31.0005 16.8998 30.8422 17.282 30.5604 17.5637C30.2786 17.8455 29.8964 18.0039 29.4979 18.0039C29.0994 18.0039 28.7172 17.8455 28.4354 17.5637L26.4354 15.5638C26.1536 15.282 25.9953 14.8998 25.9953 14.5013C25.9953 14.1027 26.1536 13.7205 26.4354 13.4388C26.7172 13.157 27.0994 12.9986 27.4979 12.9986C27.8964 12.9986 28.2786 13.157 28.5604 13.4388L30.5604 15.4388ZM30.4742 10.4225L27.4742 11.4225C27.0967 11.5483 26.6848 11.519 26.3289 11.3411C25.9731 11.1632 25.7025 10.8512 25.5767 10.4738C25.4509 10.0963 25.4801 9.68436 25.6581 9.32851C25.836 8.97266 26.148 8.70206 26.5254 8.57625L29.5254 7.57625C29.9029 7.45044 30.3148 7.47971 30.6707 7.65764C31.0265 7.83557 31.2971 8.14756 31.4229 8.525C31.5487 8.90244 31.5195 9.31439 31.3415 9.67024C31.1636 10.0261 30.8516 10.2967 30.4742 10.4225ZM19.5754 8.24125C19.9792 5.93375 21.6742 4.5 24.0004 4.5C24.8067 4.5 25.0867 4.18875 25.2504 3.885C25.3961 3.60503 25.4813 3.29754 25.5004 2.9825V3C25.5004 2.60218 25.6585 2.22064 25.9398 1.93934C26.2211 1.65804 26.6026 1.5 27.0004 1.5C27.3983 1.5 27.7798 1.65804 28.0611 1.93934C28.3424 2.22064 28.5004 2.60218 28.5004 3C28.5004 4.80875 27.3017 7.5 24.0004 7.5C23.3829 7.5 22.7242 7.64875 22.5304 8.7575C22.4698 9.10518 22.2886 9.42036 22.0186 9.64762C21.7486 9.87488 21.4071 9.99965 21.0542 10C20.967 9.99985 20.8801 9.99232 20.7942 9.9775C20.4023 9.90887 20.0538 9.68739 19.8252 9.36178C19.5967 9.03617 19.5068 8.63311 19.5754 8.24125Z" fill="#191F2E"/>
</svg>
