<svg width="20" height="20" viewBox="0 0 20 20" fill="none" xmlns="http://www.w3.org/2000/svg">
<path d="M4.21249 2.70462C4.15761 2.64275 4.09099 2.59239 4.01649 2.55645C3.942 2.52052 3.86111 2.49973 3.77853 2.49529C3.69594 2.49084 3.61329 2.50284 3.53537 2.53057C3.45746 2.5583 3.38582 2.60123 3.32461 2.65685C3.2634 2.71248 3.21384 2.7797 3.17881 2.85461C3.14377 2.92953 3.12395 3.01066 3.1205 3.09329C3.11704 3.17593 3.13003 3.25843 3.15869 3.33601C3.18736 3.41359 3.23114 3.48471 3.28749 3.54524L4.79062 5.19915C1.95312 6.94056 0.732805 9.62493 0.678899 9.74681C0.643362 9.82674 0.625 9.91324 0.625 10.0007C0.625 10.0882 0.643362 10.1747 0.678899 10.2546C0.706243 10.3163 1.36796 11.7835 2.83905 13.2546C4.79921 15.214 7.27499 16.2499 9.99999 16.2499C11.4005 16.2579 12.7868 15.9696 14.068 15.4038L15.7867 17.2952C15.8416 17.3571 15.9082 17.4075 15.9827 17.4434C16.0572 17.4793 16.1381 17.5001 16.2207 17.5046C16.3033 17.509 16.3859 17.497 16.4638 17.4693C16.5417 17.4416 16.6134 17.3986 16.6746 17.343C16.7358 17.2874 16.7854 17.2202 16.8204 17.1452C16.8554 17.0703 16.8753 16.9892 16.8787 16.9066C16.8822 16.8239 16.8692 16.7414 16.8405 16.6639C16.8118 16.5863 16.7681 16.5152 16.7117 16.4546L4.21249 2.70462ZM7.91015 8.62962L11.1656 12.2116C10.6754 12.4696 10.1134 12.5573 9.56783 12.4612C9.02229 12.3651 8.52413 12.0905 8.15157 11.6806C7.77901 11.2706 7.55314 10.7486 7.50945 10.1963C7.46575 9.64414 7.6067 9.09305 7.91015 8.62962ZM9.99999 14.9999C7.5953 14.9999 5.49452 14.1257 3.75546 12.4023C3.04164 11.6929 2.43454 10.8837 1.95312 9.99993C2.31952 9.31321 3.48905 7.39134 5.65234 6.14212L7.05859 7.68509C6.51416 8.38236 6.23377 9.24964 6.26697 10.1337C6.30017 11.0177 6.64483 11.8615 7.24002 12.516C7.83521 13.1704 8.64261 13.5934 9.51952 13.7101C10.3964 13.8269 11.2864 13.6298 12.032 13.1538L13.1828 14.4195C12.1672 14.8091 11.0878 15.006 9.99999 14.9999ZM10.4687 7.54446C10.3059 7.51338 10.162 7.41888 10.0689 7.28174C9.97568 7.14461 9.94079 6.97607 9.97187 6.81321C10.0029 6.65035 10.0975 6.50651 10.2346 6.41333C10.3717 6.32015 10.5403 6.28526 10.7031 6.31634C11.4997 6.47076 12.225 6.87856 12.7708 7.4789C13.3167 8.07925 13.6539 8.83996 13.732 9.64759C13.7475 9.81262 13.6967 9.97703 13.5909 10.1046C13.4851 10.2322 13.333 10.3126 13.168 10.3281C13.1484 10.3292 13.1289 10.3292 13.1094 10.3281C12.9532 10.3287 12.8024 10.2709 12.6867 10.1659C12.571 10.0609 12.4988 9.91641 12.4844 9.76087C12.4318 9.22368 12.2072 8.71781 11.844 8.31848C11.4809 7.91915 10.9985 7.64769 10.4687 7.54446ZM19.3187 10.2546C19.2859 10.3281 18.4945 12.0804 16.7125 13.6765C16.6516 13.7328 16.5801 13.7764 16.5022 13.8047C16.4243 13.8331 16.3415 13.8457 16.2587 13.8418C16.1759 13.8379 16.0947 13.8175 16.0198 13.7819C15.9449 13.7463 15.8779 13.6961 15.8226 13.6343C15.7673 13.5726 15.7249 13.5004 15.6977 13.4221C15.6706 13.3437 15.6593 13.2608 15.6645 13.178C15.6698 13.0953 15.6914 13.0144 15.7282 12.9401C15.765 12.8658 15.8162 12.7996 15.8789 12.7452C16.7532 11.9598 17.4876 11.0315 18.0508 9.99993C17.5683 9.11538 16.9599 8.30562 16.2445 7.59602C14.5055 5.87415 12.4047 4.99993 9.99999 4.99993C9.49332 4.99931 8.98745 5.04034 8.48749 5.12259C8.40619 5.13696 8.32284 5.13509 8.24227 5.11707C8.1617 5.09906 8.08549 5.06526 8.01805 5.01762C7.95062 4.96998 7.89329 4.90946 7.84938 4.83954C7.80547 4.76962 7.77584 4.6917 7.76222 4.61027C7.7486 4.52883 7.75124 4.44551 7.77 4.36511C7.78877 4.2847 7.82327 4.20881 7.87153 4.14182C7.91979 4.07483 7.98085 4.01806 8.05117 3.9748C8.12149 3.93154 8.19969 3.90264 8.28124 3.88977C8.84934 3.79597 9.4242 3.7492 9.99999 3.74993C12.725 3.74993 15.2008 4.78587 17.1609 6.74602C18.632 8.21712 19.2937 9.68509 19.3211 9.74681C19.3566 9.82674 19.375 9.91324 19.375 10.0007C19.375 10.0882 19.3566 10.1747 19.3211 10.2546H19.3187Z" fill="#191F2E"/>
</svg>
