<svg width="32" height="32" viewBox="0 0 32 32" fill="none" xmlns="http://www.w3.org/2000/svg">
<path d="M27 8.50006H23.7575C24.2215 7.82517 24.4794 7.03004 24.5 6.21131C24.5185 5.5876 24.4093 4.96669 24.1791 4.38673C23.9489 3.80676 23.6025 3.27999 23.1613 2.83877C22.7201 2.39754 22.1933 2.05119 21.6133 1.82097C21.0334 1.59076 20.4125 1.48155 19.7887 1.50006C19.2127 1.51236 18.6453 1.64362 18.1224 1.88562C17.5995 2.12762 17.1322 2.47512 16.75 2.90631C16.4681 3.2279 16.217 3.57526 16 3.94381C15.783 3.57526 15.5319 3.2279 15.25 2.90631C14.8678 2.47512 14.4005 2.12762 13.8776 1.88562C13.3547 1.64362 12.7873 1.51236 12.2113 1.50006C11.5875 1.48155 10.9666 1.59076 10.3867 1.82097C9.8067 2.05119 9.27993 2.39754 8.83871 2.83877C8.39748 3.27999 8.05113 3.80676 7.82091 4.38673C7.5907 4.96669 7.48149 5.5876 7.5 6.21131C7.52058 7.03004 7.77853 7.82517 8.2425 8.50006H5C4.33696 8.50006 3.70107 8.76345 3.23223 9.23229C2.76339 9.70113 2.5 10.337 2.5 11.0001V15.0001C2.49988 15.5764 2.69889 16.1351 3.06335 16.5815C3.4278 17.028 3.93532 17.3348 4.5 17.4501V25.0001C4.5 25.6631 4.76339 26.299 5.23223 26.7678C5.70107 27.2367 6.33696 27.5001 7 27.5001H25C25.663 27.5001 26.2989 27.2367 26.7678 26.7678C27.2366 26.299 27.5 25.6631 27.5 25.0001V17.4501C28.0647 17.3348 28.5722 17.028 28.9367 16.5815C29.3011 16.1351 29.5001 15.5764 29.5 15.0001V11.0001C29.5 10.337 29.2366 9.70113 28.7678 9.23229C28.2989 8.76345 27.663 8.50006 27 8.50006ZM26.5 14.5001H17.5V11.5001H26.5V14.5001ZM19 4.89631C19.1106 4.7735 19.2455 4.67491 19.3961 4.60671C19.5467 4.53852 19.7097 4.50221 19.875 4.50006H19.9188C20.1303 4.49946 20.3398 4.54141 20.5348 4.62342C20.7298 4.70543 20.9063 4.82581 21.0538 4.97742C21.2013 5.12902 21.3168 5.30875 21.3935 5.5059C21.4701 5.70306 21.5064 5.91362 21.5 6.12506C21.4979 6.29035 21.4615 6.4534 21.3933 6.60398C21.3252 6.75456 21.2266 6.88941 21.1038 7.00006C20.2413 7.76506 18.8225 8.15756 17.65 8.34506C17.8375 7.17756 18.23 5.75881 19 4.89631ZM10.9625 4.96256C11.2592 4.66903 11.6589 4.50306 12.0763 4.50006H12.125C12.2903 4.50221 12.4533 4.53852 12.6039 4.60671C12.7545 4.67491 12.8894 4.7735 13 4.89631C13.765 5.75881 14.1575 7.17631 14.3438 8.34756C13.1812 8.15881 11.75 7.76631 10.8962 7.00006C10.7734 6.88941 10.6748 6.75456 10.6067 6.60398C10.5385 6.4534 10.5022 6.29035 10.5 6.12506C10.4945 5.91008 10.5326 5.69622 10.6121 5.49641C10.6916 5.29659 10.8108 5.11498 10.9625 4.96256ZM5.5 11.5001H14.5V14.5001H5.5V11.5001ZM7.5 17.5001H14.5V24.5001H7.5V17.5001ZM17.5 24.5001V17.5001H24.5V24.5001H17.5Z" fill="#191F2E"/>
</svg>
