<svg width="32" height="32" viewBox="0 0 32 32" fill="none" xmlns="http://www.w3.org/2000/svg">
<path d="M27.695 12.6062L17.7013 3.17241L17.6812 3.15366C17.222 2.73335 16.622 2.50024 15.9994 2.50024C15.3768 2.50024 14.7768 2.73335 14.3175 3.15366L14.2963 3.17241L4.305 12.6062C4.05163 12.8406 3.84935 13.1248 3.71084 13.4409C3.57233 13.7571 3.50055 14.0985 3.5 14.4437V25.9999C3.5 26.663 3.76339 27.2988 4.23223 27.7677C4.70107 28.2365 5.33696 28.4999 6 28.4999H12C12.663 28.4999 13.2989 28.2365 13.7678 27.7677C14.2366 27.2988 14.5 26.663 14.5 25.9999V20.4999H17.5V25.9999C17.5 26.663 17.7634 27.2988 18.2322 27.7677C18.7011 28.2365 19.337 28.4999 20 28.4999H26C26.663 28.4999 27.2989 28.2365 27.7678 27.7677C28.2366 27.2988 28.5 26.663 28.5 25.9999V14.4437C28.4995 14.0985 28.4277 13.7571 28.2892 13.4409C28.1506 13.1248 27.9484 12.8406 27.695 12.6062ZM25.5 25.4999H20.5V19.9999C20.5 19.6716 20.4353 19.3465 20.3097 19.0432C20.1841 18.7399 19.9999 18.4643 19.7678 18.2321C19.5356 18 19.26 17.8159 18.9567 17.6902C18.6534 17.5646 18.3283 17.4999 18 17.4999H14C13.337 17.4999 12.7011 17.7633 12.2322 18.2321C11.7634 18.701 11.5 19.3369 11.5 19.9999V25.4999H6.5V14.6599L16 5.69116L25.5 14.6599V25.4999Z" fill="#191F2E"/>
</svg>
