<svg width="32" height="32" viewBox="0 0 32 32" fill="none" xmlns="http://www.w3.org/2000/svg">
<path d="M28.4999 16C28.4999 16.3978 28.3419 16.7793 28.0606 17.0606C27.7793 17.3419 27.3978 17.5 26.9999 17.5H15.9999C15.6021 17.5 15.2206 17.3419 14.9393 17.0606C14.658 16.7793 14.4999 16.3978 14.4999 16C14.4999 15.6022 14.658 15.2206 14.9393 14.9393C15.2206 14.658 15.6021 14.5 15.9999 14.5H26.9999C27.3978 14.5 27.7793 14.658 28.0606 14.9393C28.3419 15.2206 28.4999 15.6022 28.4999 16ZM15.9999 9.49997H26.9999C27.3978 9.49997 27.7793 9.34194 28.0606 9.06064C28.3419 8.77933 28.4999 8.3978 28.4999 7.99997C28.4999 7.60215 28.3419 7.22062 28.0606 6.93931C27.7793 6.65801 27.3978 6.49997 26.9999 6.49997H15.9999C15.6021 6.49997 15.2206 6.65801 14.9393 6.93931C14.658 7.22062 14.4999 7.60215 14.4999 7.99997C14.4999 8.3978 14.658 8.77933 14.9393 9.06064C15.2206 9.34194 15.6021 9.49997 15.9999 9.49997ZM26.9999 22.5H15.9999C15.6021 22.5 15.2206 22.658 14.9393 22.9393C14.658 23.2206 14.4999 23.6021 14.4999 24C14.4999 24.3978 14.658 24.7793 14.9393 25.0606C15.2206 25.3419 15.6021 25.5 15.9999 25.5H26.9999C27.3978 25.5 27.7793 25.3419 28.0606 25.0606C28.3419 24.7793 28.4999 24.3978 28.4999 24C28.4999 23.6021 28.3419 23.2206 28.0606 22.9393C27.7793 22.658 27.3978 22.5 26.9999 22.5ZM9.9387 4.93872L6.99995 7.87497L6.0612 6.93497C5.7794 6.65318 5.39721 6.49487 4.9987 6.49487C4.60018 6.49487 4.21799 6.65318 3.9362 6.93497C3.6544 7.21677 3.49609 7.59896 3.49609 7.99747C3.49609 8.39599 3.6544 8.77818 3.9362 9.05998L5.9362 11.06C6.07555 11.1998 6.24114 11.3108 6.42347 11.3865C6.6058 11.4622 6.80127 11.5012 6.9987 11.5012C7.19612 11.5012 7.3916 11.4622 7.57392 11.3865C7.75625 11.3108 7.92184 11.1998 8.0612 11.06L12.0612 7.05997C12.343 6.77818 12.5013 6.39599 12.5013 5.99747C12.5013 5.59896 12.343 5.21677 12.0612 4.93497C11.7794 4.65318 11.3972 4.49487 10.9987 4.49487C10.6002 4.49487 10.218 4.65318 9.9362 4.93497L9.9387 4.93872ZM9.9387 12.9387L6.99995 15.875L6.0612 14.935C5.7794 14.6532 5.39721 14.4949 4.9987 14.4949C4.60018 14.4949 4.21799 14.6532 3.9362 14.935C3.6544 15.2168 3.49609 15.599 3.49609 15.9975C3.49609 16.396 3.6544 16.7782 3.9362 17.06L5.9362 19.06C6.07555 19.1998 6.24114 19.3108 6.42347 19.3865C6.6058 19.4622 6.80127 19.5012 6.9987 19.5012C7.19612 19.5012 7.3916 19.4622 7.57392 19.3865C7.75625 19.3108 7.92184 19.1998 8.0612 19.06L12.0612 15.06C12.343 14.7782 12.5013 14.396 12.5013 13.9975C12.5013 13.599 12.343 13.2168 12.0612 12.935C11.7794 12.6532 11.3972 12.4949 10.9987 12.4949C10.6002 12.4949 10.218 12.6532 9.9362 12.935L9.9387 12.9387ZM9.9387 20.9387L6.99995 23.875L6.0612 22.935C5.92167 22.7954 5.75602 22.6848 5.57372 22.6093C5.39141 22.5337 5.19602 22.4949 4.9987 22.4949C4.80137 22.4949 4.60598 22.5337 4.42367 22.6093C4.24137 22.6848 4.07573 22.7954 3.9362 22.935C3.79667 23.0745 3.68599 23.2402 3.61047 23.4225C3.53496 23.6048 3.49609 23.8001 3.49609 23.9975C3.49609 24.1948 3.53496 24.3902 3.61047 24.5725C3.68599 24.7548 3.79667 24.9204 3.9362 25.06L5.9362 27.06C6.07555 27.1998 6.24114 27.3108 6.42347 27.3865C6.6058 27.4622 6.80127 27.5012 6.9987 27.5012C7.19612 27.5012 7.3916 27.4622 7.57392 27.3865C7.75625 27.3108 7.92184 27.1998 8.0612 27.06L12.0612 23.06C12.343 22.7782 12.5013 22.396 12.5013 21.9975C12.5013 21.599 12.343 21.2168 12.0612 20.935C11.7794 20.6532 11.3972 20.4949 10.9987 20.4949C10.6002 20.4949 10.218 20.6532 9.9362 20.935L9.9387 20.9387Z" fill="#191F2E"/>
</svg>
