<svg width="32" height="32" viewBox="0 0 32 32" fill="none" xmlns="http://www.w3.org/2000/svg">
<path d="M28.5 13.55C29.0645 13.4348 29.5718 13.1281 29.9363 12.6819C30.3007 12.2357 30.4998 11.6774 30.5 11.1012V8C30.5 7.33696 30.2366 6.70107 29.7678 6.23223C29.2989 5.76339 28.663 5.5 28 5.5H4C3.33696 5.5 2.70107 5.76339 2.23223 6.23223C1.76339 6.70107 1.5 7.33696 1.5 8V11.1012C1.50017 11.6774 1.69931 12.2357 2.06374 12.6819C2.42817 13.1281 2.93553 13.4348 3.5 13.55C4.06514 13.6648 4.57324 13.9714 4.93819 14.4179C5.30314 14.8644 5.50251 15.4233 5.50251 16C5.50251 16.5767 5.30314 17.1356 4.93819 17.5821C4.57324 18.0286 4.06514 18.3352 3.5 18.45C2.93553 18.5652 2.42817 18.8719 2.06374 19.3181C1.69931 19.7643 1.50017 20.3226 1.5 20.8988V24C1.5 24.663 1.76339 25.2989 2.23223 25.7678C2.70107 26.2366 3.33696 26.5 4 26.5H28C28.663 26.5 29.2989 26.2366 29.7678 25.7678C30.2366 25.2989 30.5 24.663 30.5 24V20.8988C30.4998 20.3226 30.3007 19.7643 29.9363 19.3181C29.5718 18.8719 29.0645 18.5652 28.5 18.45C27.9349 18.3352 27.4268 18.0286 27.0618 17.5821C26.6969 17.1356 26.4975 16.5767 26.4975 16C26.4975 15.4233 26.6969 14.8644 27.0618 14.4179C27.4268 13.9714 27.9349 13.6648 28.5 13.55ZM4.5 21.2925C5.65259 20.9666 6.66729 20.2733 7.3899 19.3181C8.11251 18.3628 8.50352 17.1978 8.50352 16C8.50352 14.8022 8.11251 13.6372 7.3899 12.6819C6.66729 11.7267 5.65259 11.0334 4.5 10.7075V8.5H10.5V23.5H4.5V21.2925ZM27.5 21.2925V23.5H13.5V8.5H27.5V10.7075C26.3474 11.0334 25.3327 11.7267 24.6101 12.6819C23.8875 13.6372 23.4965 14.8022 23.4965 16C23.4965 17.1978 23.8875 18.3628 24.6101 19.3181C25.3327 20.2733 26.3474 20.9666 27.5 21.2925Z" fill="#191F2E"/>
</svg>
