<svg width="32" height="32" viewBox="0 0 32 32" fill="none" xmlns="http://www.w3.org/2000/svg">
<path d="M29.2973 26.2498C27.5835 23.242 24.9074 20.8983 21.6998 19.5961C23.2949 18.3998 24.4732 16.7319 25.0677 14.8287C25.6622 12.9255 25.6428 10.8835 25.0123 8.99193C24.3818 7.10037 23.1721 5.45514 21.5546 4.28929C19.937 3.12345 17.9937 2.49609 15.9998 2.49609C14.0059 2.49609 12.0626 3.12345 10.4451 4.28929C8.82754 5.45514 7.61784 7.10037 6.98732 8.99193C6.3568 10.8835 6.33742 12.9255 6.93193 14.8287C7.52644 16.7319 8.7047 18.3998 10.2998 19.5961C7.09221 20.8983 4.41612 23.242 2.70231 26.2498C2.59612 26.4206 2.52534 26.611 2.49419 26.8096C2.46303 27.0083 2.47214 27.2112 2.52096 27.4062C2.56979 27.6013 2.65733 27.7845 2.7784 27.9451C2.89946 28.1057 3.05157 28.2402 3.22568 28.3408C3.39979 28.4414 3.59235 28.506 3.79191 28.5307C3.99147 28.5553 4.19396 28.5397 4.38733 28.4845C4.58071 28.4294 4.76103 28.3359 4.91757 28.2097C5.07411 28.0835 5.20367 27.9271 5.29856 27.7498C7.56356 23.8348 11.5636 21.4998 15.9998 21.4998C20.4361 21.4998 24.4361 23.8361 26.7011 27.7498C26.9067 28.0805 27.2329 28.3182 27.6106 28.4128C27.9884 28.5073 28.3881 28.4513 28.7252 28.2565C29.0624 28.0617 29.3106 27.7434 29.4173 27.3689C29.5241 26.9945 29.4811 26.5932 29.2973 26.2498ZM9.49981 11.9998C9.49981 10.7143 9.88103 9.45756 10.5953 8.38864C11.3095 7.31972 12.3246 6.4866 13.5124 5.99463C14.7001 5.50266 16.007 5.37394 17.2679 5.62474C18.5288 5.87554 19.687 6.49461 20.596 7.40365C21.505 8.31269 22.1241 9.47088 22.3749 10.7318C22.6257 11.9926 22.497 13.2996 22.005 14.4873C21.5131 15.675 20.6799 16.6902 19.611 17.4044C18.5421 18.1186 17.2854 18.4998 15.9998 18.4998C14.2765 18.4979 12.6244 17.8124 11.4058 16.5938C10.1873 15.3753 9.5018 13.7231 9.49981 11.9998Z" fill="#191F2E"/>
</svg>
