<svg xmlns="http://www.w3.org/2000/svg" version="1.1" xmlns:xlink="http://www.w3.org/1999/xlink" width="1000" height="1000"><g clip-path="url(#SvgjsClipPath1026)"><rect width="1000" height="1000" fill="#ffffff"></rect><g transform="matrix(21.875,0,0,21.875,150,150)"><svg xmlns="http://www.w3.org/2000/svg" version="1.1" xmlns:xlink="http://www.w3.org/1999/xlink" width="32" height="32"><svg width="32" height="32" viewBox="0 0 32 32" fill="none" xmlns="http://www.w3.org/2000/svg">
<g clip-path="url(#clip0_7736_1799)">
<path fill-rule="evenodd" clip-rule="evenodd" d="M8.95996 2.56H23.04C26.5746 2.56 29.44 5.42538 29.44 8.96V19.9392C29.44 21.4069 28.6208 22.8038 27.2172 23.2327C26.2343 23.533 25.2307 23.6985 24.2128 23.6534C21.8095 23.5434 19.3125 21.9906 18.4847 19.3314C18.0172 17.8368 18.1877 15.9702 19.2079 14.922C20.2252 13.8771 22.12 14.1424 22.6315 15.6143C21.6222 12.2564 18.2234 10.5709 15.2118 10.9268C12.1977 11.2859 9.50295 13.2172 6.98664 15.197C6.80491 15.34 6.62306 15.4837 6.44095 15.6276C5.17584 16.6275 3.89828 17.6373 2.55996 18.4762V8.96C2.55996 5.42538 5.42533 2.56 8.95996 2.56ZM-4.3869e-05 19.7925V8.96C-4.3869e-05 4.01153 4.01149 0 8.95996 0H23.04C27.9884 0 32 4.01153 32 8.96V20.9205C32.172 20.8181 32.3439 20.7152 32.5158 20.6123C34.1985 19.6053 35.8846 18.5962 37.7022 18.0244C38.5492 17.7591 39.4372 17.6006 40.32 17.5877C38.2079 28.0562 30.2107 35.84 20.668 35.84H13.1935C4.4976 35.84 -2.9165 29.3761 -5.76004 20.3083C-4.1897 20.6286 -2.56449 20.5736 -1.0107 20.1337C-0.668548 20.0366 -0.331862 19.9222 -4.3869e-05 19.7925Z" fill="#1E1E1E"></path>
</g>
<defs>
<clipPath id="clip0_7736_1799">
<rect width="32" height="32" rx="8.96" fill="white"></rect>
</clipPath>
<clipPath id="SvgjsClipPath1026"><rect width="1000" height="1000" x="0" y="0" rx="350" ry="350"></rect></clipPath></defs>
</svg></svg></g></g></svg>